<svg width="545" height="309" viewBox="0 0 545 309" fill="none" xmlns="http://www.w3.org/2000/svg">
<g clip-path="url(#clip0_2224_217)">
<g filter="url(#filter0_di_2224_217)">
<path d="M26 112.507C26 105.879 31.3726 100.507 38 100.507H86C92.6274 100.507 98 105.879 98 112.507V160.507C98 167.134 92.6274 172.507 86 172.507H38C31.3726 172.507 26 167.134 26 160.507V112.507Z" fill="url(#paint0_linear_2224_217)"/>
<path d="M47.3 139.422V138.882H48.725V139.422C48.725 140.487 49.31 141.252 50.51 141.252C51.74 141.252 52.28 140.502 52.28 139.377V131.592H53.75V139.437C53.75 141.387 52.445 142.617 50.51 142.617C48.44 142.617 47.3 141.297 47.3 139.422ZM56.3565 142.437H54.8265L58.7865 131.592H60.4215L64.3965 142.437H62.8515L61.8765 139.737H57.3165L56.3565 142.437ZM59.4165 133.932L57.7665 138.462H61.4415L59.7765 133.932C59.7015 133.722 59.6265 133.467 59.5965 133.302C59.5665 133.452 59.4915 133.707 59.4165 133.932ZM67.3081 142.437H65.8381V131.592H67.3081L72.8581 139.977V131.592H74.3281V142.437H72.8581L67.3081 134.052V142.437Z" fill="white"/>
</g>
<g filter="url(#filter1_di_2224_217)">
<path d="M116 112.507C116 105.879 121.373 100.507 128 100.507H176C182.627 100.507 188 105.879 188 112.507V160.507C188 167.134 182.627 172.507 176 172.507H128C121.373 172.507 116 167.134 116 160.507V112.507Z" fill="url(#paint1_linear_2224_217)"/>
<path d="M143.99 137.832H139.73V142.437H138.26V131.592H144.8V132.942H139.73V136.497H143.99V137.832ZM153.195 142.437H146.58V131.592H153.195V132.942H148.05V136.332H152.685V137.637H148.05V141.072H153.195V142.437ZM155.325 142.437V131.592H159.465C161.58 131.592 162.87 132.672 162.87 134.457C162.87 135.702 162.33 136.542 161.25 136.992C162.45 137.382 163.065 138.252 163.065 139.542C163.065 141.342 161.76 142.437 159.615 142.437H155.325ZM159.375 132.897H156.795V136.377H159.465C160.68 136.377 161.37 135.717 161.37 134.592C161.37 133.512 160.65 132.897 159.375 132.897ZM159.585 137.652H156.795V141.132H159.585C160.845 141.132 161.55 140.487 161.55 139.362C161.55 138.282 160.83 137.652 159.585 137.652Z" fill="white"/>
</g>
<g filter="url(#filter2_di_2224_217)">
<path d="M206 112.507C206 105.879 211.373 100.507 218 100.507H266C272.627 100.507 278 105.879 278 112.507V160.507C278 167.134 272.627 172.507 266 172.507H218C211.373 172.507 206 167.134 206 160.507V112.507Z" fill="url(#paint2_linear_2224_217)"/>
<path d="M229.7 142.437H228.26V131.592H229.7L233.435 140.712L237.17 131.592H238.64V142.437H237.2V138.147C237.2 136.122 237.215 135.387 237.29 134.622L234.125 142.437H232.745L229.595 134.652C229.67 135.177 229.7 136.287 229.7 137.802V142.437ZM241.615 142.437H240.085L244.045 131.592H245.68L249.655 142.437H248.11L247.135 139.737H242.575L241.615 142.437ZM244.675 133.932L243.025 138.462H246.7L245.035 133.932C244.96 133.722 244.885 133.467 244.855 133.302C244.825 133.452 244.75 133.707 244.675 133.932ZM252.567 142.437H251.097V131.592H255.192C257.517 131.592 258.897 132.822 258.897 134.847C258.897 136.347 258.147 137.427 256.797 137.862L259.002 142.437H257.367L255.342 138.147H252.567V142.437ZM252.567 132.912V136.842H255.207C256.572 136.842 257.352 136.107 257.352 134.862C257.352 133.602 256.542 132.912 255.192 132.912H252.567Z" fill="white"/>
</g>
<g filter="url(#filter3_di_2224_217)">
<path d="M296 112.507C296 105.879 301.373 100.507 308 100.507H356C362.627 100.507 368 105.879 368 112.507V160.507C368 167.134 362.627 172.507 356 172.507H308C301.373 172.507 296 167.134 296 160.507V112.507Z" fill="url(#paint3_linear_2224_217)"/>
<path d="M318.71 142.437H317.18L321.14 131.592H322.775L326.75 142.437H325.205L324.23 139.737H319.67L318.71 142.437ZM321.77 133.932L320.12 138.462H323.795L322.13 133.932C322.055 133.722 321.98 133.467 321.95 133.302C321.92 133.452 321.845 133.707 321.77 133.932ZM332.407 138.567H329.662V142.437H328.192V131.592H332.407C334.537 131.592 335.902 132.987 335.902 135.072C335.902 137.097 334.522 138.567 332.407 138.567ZM332.152 132.912H329.662V137.247H332.092C333.547 137.247 334.357 136.392 334.357 135.057C334.357 133.692 333.532 132.912 332.152 132.912ZM339.037 142.437H337.567V131.592H341.662C343.987 131.592 345.367 132.822 345.367 134.847C345.367 136.347 344.617 137.427 343.267 137.862L345.472 142.437H343.837L341.812 138.147H339.037V142.437ZM339.037 132.912V136.842H341.677C343.042 136.842 343.822 136.107 343.822 134.862C343.822 133.602 343.012 132.912 341.662 132.912H339.037Z" fill="white"/>
</g>
<g filter="url(#filter4_di_2224_217)">
<path d="M386 112.507C386 105.879 391.373 100.507 398 100.507H446C452.627 100.507 458 105.879 458 112.507V160.507C458 167.134 452.627 172.507 446 172.507H398C391.373 172.507 386 167.134 386 160.507V112.507Z" fill="url(#paint4_linear_2224_217)"/>
<path d="M409.7 142.437H408.26V131.592H409.7L413.435 140.712L417.17 131.592H418.64V142.437H417.2V138.147C417.2 136.122 417.215 135.387 417.29 134.622L414.125 142.437H412.745L409.595 134.652C409.67 135.177 409.7 136.287 409.7 137.802V142.437ZM421.615 142.437H420.085L424.045 131.592H425.68L429.655 142.437H428.11L427.135 139.737H422.575L421.615 142.437ZM424.675 133.932L423.025 138.462H426.7L425.035 133.932C424.96 133.722 424.885 133.467 424.855 133.302C424.825 133.452 424.75 133.707 424.675 133.932ZM432.578 138.027L428.903 131.592H430.553L432.968 135.927C433.118 136.182 433.208 136.392 433.328 136.647C433.463 136.377 433.493 136.287 433.688 135.927L436.088 131.592H437.693L434.048 138.027V142.437H432.578V138.027Z" fill="white"/>
</g>
<g filter="url(#filter5_di_2224_217)">
<path d="M26 202.507C26 195.879 31.3726 190.507 38 190.507H86C92.6274 190.507 98 195.879 98 202.507V250.507C98 257.134 92.6274 262.507 86 262.507H38C31.3726 262.507 26 257.134 26 250.507V202.507Z" fill="url(#paint5_linear_2224_217)"/>
</g>
<g filter="url(#filter6_di_2224_217)">
<path d="M116 202.507C116 195.879 121.373 190.507 128 190.507H176C182.627 190.507 188 195.879 188 202.507V250.507C188 257.134 182.627 262.507 176 262.507H128C121.373 262.507 116 257.134 116 250.507V202.507Z" fill="url(#paint6_linear_2224_217)"/>
</g>
<g filter="url(#filter7_di_2224_217)">
<path d="M206 202.507C206 195.879 211.373 190.507 218 190.507H266C272.627 190.507 278 195.879 278 202.507V250.507C278 257.134 272.627 262.507 266 262.507H218C211.373 262.507 206 257.134 206 250.507V202.507Z" fill="url(#paint7_linear_2224_217)"/>
</g>
<g filter="url(#filter8_di_2224_217)">
<path d="M296 202.507C296 195.879 301.373 190.507 308 190.507H356C362.627 190.507 368 195.879 368 202.507V250.507C368 257.134 362.627 262.507 356 262.507H308C301.373 262.507 296 257.134 296 250.507V202.507Z" fill="url(#paint8_linear_2224_217)"/>
</g>
<g filter="url(#filter9_di_2224_217)">
<path d="M386 202.507C386 195.879 391.373 190.507 398 190.507H446C452.627 190.507 458 195.879 458 202.507V250.507C458 257.134 452.627 262.507 446 262.507H398C391.373 262.507 386 257.134 386 250.507V202.507Z" fill="url(#paint9_linear_2224_217)"/>
</g>
<g filter="url(#filter10_d_2224_217)">
<g clip-path="url(#clip1_2224_217)">
<path d="M466.49 497.069C460.881 496.663 456.347 491.939 456.363 486.519L457.776 15.4429C457.793 10.0227 462.353 5.95845 467.962 6.36507L504.523 9.01552C510.132 9.42214 514.665 14.1457 514.649 19.5658L513.236 490.642C513.22 496.062 508.66 500.126 503.051 499.72L466.49 497.069Z" fill="white" fill-opacity="0.01" shape-rendering="crispEdges"/>
<path d="M464.459 496.922C459.972 496.597 456.345 492.818 456.358 488.482L457.484 112.965L514.357 117.088L513.23 492.605C513.217 496.941 509.569 500.192 505.082 499.867L464.459 496.922Z" fill="url(#paint10_linear_2224_217)"/>
<g opacity="0.808" filter="url(#filter11_f_2224_217)">
<rect width="430" height="4" transform="matrix(0.00294378 -0.981408 1.01558 0.0736238 476.373 520.731)" fill="url(#paint11_linear_2224_217)"/>
</g>
<path d="M457.484 112.965L457.765 19.3586C457.788 11.7704 464.172 6.08036 472.025 6.64962L500.461 8.71109C508.313 9.28035 514.661 15.8933 514.638 23.4815L514.357 117.088L457.484 112.965Z" fill="url(#paint12_linear_2224_217)"/>
</g>
</g>
</g>
<defs>
<filter id="filter0_di_2224_217" x="1" y="100.507" width="122" height="127" filterUnits="userSpaceOnUse" color-interpolation-filters="sRGB">
<feFlood flood-opacity="0" result="BackgroundImageFix"/>
<feColorMatrix in="SourceAlpha" type="matrix" values="0 0 0 0 0 0 0 0 0 0 0 0 0 0 0 0 0 0 127 0" result="hardAlpha"/>
<feOffset dy="30"/>
<feGaussianBlur stdDeviation="12.5"/>
<feComposite in2="hardAlpha" operator="out"/>
<feColorMatrix type="matrix" values="0 0 0 0 0 0 0 0 0 0 0 0 0 0 0 0 0 0 0.5 0"/>
<feBlend mode="normal" in2="BackgroundImageFix" result="effect1_dropShadow_2224_217"/>
<feBlend mode="normal" in="SourceGraphic" in2="effect1_dropShadow_2224_217" result="shape"/>
<feColorMatrix in="SourceAlpha" type="matrix" values="0 0 0 0 0 0 0 0 0 0 0 0 0 0 0 0 0 0 127 0" result="hardAlpha"/>
<feOffset dy="2"/>
<feGaussianBlur stdDeviation="1"/>
<feComposite in2="hardAlpha" operator="arithmetic" k2="-1" k3="1"/>
<feColorMatrix type="matrix" values="0 0 0 0 0.321569 0 0 0 0 0.317647 0 0 0 0 0.329412 0 0 0 1 0"/>
<feBlend mode="normal" in2="shape" result="effect2_innerShadow_2224_217"/>
</filter>
<filter id="filter1_di_2224_217" x="91" y="100.507" width="122" height="127" filterUnits="userSpaceOnUse" color-interpolation-filters="sRGB">
<feFlood flood-opacity="0" result="BackgroundImageFix"/>
<feColorMatrix in="SourceAlpha" type="matrix" values="0 0 0 0 0 0 0 0 0 0 0 0 0 0 0 0 0 0 127 0" result="hardAlpha"/>
<feOffset dy="30"/>
<feGaussianBlur stdDeviation="12.5"/>
<feComposite in2="hardAlpha" operator="out"/>
<feColorMatrix type="matrix" values="0 0 0 0 0 0 0 0 0 0 0 0 0 0 0 0 0 0 0.5 0"/>
<feBlend mode="normal" in2="BackgroundImageFix" result="effect1_dropShadow_2224_217"/>
<feBlend mode="normal" in="SourceGraphic" in2="effect1_dropShadow_2224_217" result="shape"/>
<feColorMatrix in="SourceAlpha" type="matrix" values="0 0 0 0 0 0 0 0 0 0 0 0 0 0 0 0 0 0 127 0" result="hardAlpha"/>
<feOffset dy="2"/>
<feGaussianBlur stdDeviation="1"/>
<feComposite in2="hardAlpha" operator="arithmetic" k2="-1" k3="1"/>
<feColorMatrix type="matrix" values="0 0 0 0 0.321569 0 0 0 0 0.317647 0 0 0 0 0.329412 0 0 0 1 0"/>
<feBlend mode="normal" in2="shape" result="effect2_innerShadow_2224_217"/>
</filter>
<filter id="filter2_di_2224_217" x="181" y="100.507" width="122" height="127" filterUnits="userSpaceOnUse" color-interpolation-filters="sRGB">
<feFlood flood-opacity="0" result="BackgroundImageFix"/>
<feColorMatrix in="SourceAlpha" type="matrix" values="0 0 0 0 0 0 0 0 0 0 0 0 0 0 0 0 0 0 127 0" result="hardAlpha"/>
<feOffset dy="30"/>
<feGaussianBlur stdDeviation="12.5"/>
<feComposite in2="hardAlpha" operator="out"/>
<feColorMatrix type="matrix" values="0 0 0 0 0 0 0 0 0 0 0 0 0 0 0 0 0 0 0.5 0"/>
<feBlend mode="normal" in2="BackgroundImageFix" result="effect1_dropShadow_2224_217"/>
<feBlend mode="normal" in="SourceGraphic" in2="effect1_dropShadow_2224_217" result="shape"/>
<feColorMatrix in="SourceAlpha" type="matrix" values="0 0 0 0 0 0 0 0 0 0 0 0 0 0 0 0 0 0 127 0" result="hardAlpha"/>
<feOffset dy="2"/>
<feGaussianBlur stdDeviation="1"/>
<feComposite in2="hardAlpha" operator="arithmetic" k2="-1" k3="1"/>
<feColorMatrix type="matrix" values="0 0 0 0 0.321569 0 0 0 0 0.317647 0 0 0 0 0.329412 0 0 0 1 0"/>
<feBlend mode="normal" in2="shape" result="effect2_innerShadow_2224_217"/>
</filter>
<filter id="filter3_di_2224_217" x="271" y="100.507" width="122" height="127" filterUnits="userSpaceOnUse" color-interpolation-filters="sRGB">
<feFlood flood-opacity="0" result="BackgroundImageFix"/>
<feColorMatrix in="SourceAlpha" type="matrix" values="0 0 0 0 0 0 0 0 0 0 0 0 0 0 0 0 0 0 127 0" result="hardAlpha"/>
<feOffset dy="30"/>
<feGaussianBlur stdDeviation="12.5"/>
<feComposite in2="hardAlpha" operator="out"/>
<feColorMatrix type="matrix" values="0 0 0 0 0 0 0 0 0 0 0 0 0 0 0 0 0 0 0.5 0"/>
<feBlend mode="normal" in2="BackgroundImageFix" result="effect1_dropShadow_2224_217"/>
<feBlend mode="normal" in="SourceGraphic" in2="effect1_dropShadow_2224_217" result="shape"/>
<feColorMatrix in="SourceAlpha" type="matrix" values="0 0 0 0 0 0 0 0 0 0 0 0 0 0 0 0 0 0 127 0" result="hardAlpha"/>
<feOffset dy="2"/>
<feGaussianBlur stdDeviation="1"/>
<feComposite in2="hardAlpha" operator="arithmetic" k2="-1" k3="1"/>
<feColorMatrix type="matrix" values="0 0 0 0 0.321569 0 0 0 0 0.317647 0 0 0 0 0.329412 0 0 0 1 0"/>
<feBlend mode="normal" in2="shape" result="effect2_innerShadow_2224_217"/>
</filter>
<filter id="filter4_di_2224_217" x="361" y="100.507" width="122" height="127" filterUnits="userSpaceOnUse" color-interpolation-filters="sRGB">
<feFlood flood-opacity="0" result="BackgroundImageFix"/>
<feColorMatrix in="SourceAlpha" type="matrix" values="0 0 0 0 0 0 0 0 0 0 0 0 0 0 0 0 0 0 127 0" result="hardAlpha"/>
<feOffset dy="30"/>
<feGaussianBlur stdDeviation="12.5"/>
<feComposite in2="hardAlpha" operator="out"/>
<feColorMatrix type="matrix" values="0 0 0 0 0 0 0 0 0 0 0 0 0 0 0 0 0 0 0.5 0"/>
<feBlend mode="normal" in2="BackgroundImageFix" result="effect1_dropShadow_2224_217"/>
<feBlend mode="normal" in="SourceGraphic" in2="effect1_dropShadow_2224_217" result="shape"/>
<feColorMatrix in="SourceAlpha" type="matrix" values="0 0 0 0 0 0 0 0 0 0 0 0 0 0 0 0 0 0 127 0" result="hardAlpha"/>
<feOffset dy="2"/>
<feGaussianBlur stdDeviation="1"/>
<feComposite in2="hardAlpha" operator="arithmetic" k2="-1" k3="1"/>
<feColorMatrix type="matrix" values="0 0 0 0 0.321569 0 0 0 0 0.317647 0 0 0 0 0.329412 0 0 0 1 0"/>
<feBlend mode="normal" in2="shape" result="effect2_innerShadow_2224_217"/>
</filter>
<filter id="filter5_di_2224_217" x="1" y="190.507" width="122" height="127" filterUnits="userSpaceOnUse" color-interpolation-filters="sRGB">
<feFlood flood-opacity="0" result="BackgroundImageFix"/>
<feColorMatrix in="SourceAlpha" type="matrix" values="0 0 0 0 0 0 0 0 0 0 0 0 0 0 0 0 0 0 127 0" result="hardAlpha"/>
<feOffset dy="30"/>
<feGaussianBlur stdDeviation="12.5"/>
<feComposite in2="hardAlpha" operator="out"/>
<feColorMatrix type="matrix" values="0 0 0 0 0 0 0 0 0 0 0 0 0 0 0 0 0 0 0.5 0"/>
<feBlend mode="normal" in2="BackgroundImageFix" result="effect1_dropShadow_2224_217"/>
<feBlend mode="normal" in="SourceGraphic" in2="effect1_dropShadow_2224_217" result="shape"/>
<feColorMatrix in="SourceAlpha" type="matrix" values="0 0 0 0 0 0 0 0 0 0 0 0 0 0 0 0 0 0 127 0" result="hardAlpha"/>
<feOffset dy="2"/>
<feGaussianBlur stdDeviation="1"/>
<feComposite in2="hardAlpha" operator="arithmetic" k2="-1" k3="1"/>
<feColorMatrix type="matrix" values="0 0 0 0 0.321569 0 0 0 0 0.317647 0 0 0 0 0.329412 0 0 0 1 0"/>
<feBlend mode="normal" in2="shape" result="effect2_innerShadow_2224_217"/>
</filter>
<filter id="filter6_di_2224_217" x="91" y="190.507" width="122" height="127" filterUnits="userSpaceOnUse" color-interpolation-filters="sRGB">
<feFlood flood-opacity="0" result="BackgroundImageFix"/>
<feColorMatrix in="SourceAlpha" type="matrix" values="0 0 0 0 0 0 0 0 0 0 0 0 0 0 0 0 0 0 127 0" result="hardAlpha"/>
<feOffset dy="30"/>
<feGaussianBlur stdDeviation="12.5"/>
<feComposite in2="hardAlpha" operator="out"/>
<feColorMatrix type="matrix" values="0 0 0 0 0 0 0 0 0 0 0 0 0 0 0 0 0 0 0.5 0"/>
<feBlend mode="normal" in2="BackgroundImageFix" result="effect1_dropShadow_2224_217"/>
<feBlend mode="normal" in="SourceGraphic" in2="effect1_dropShadow_2224_217" result="shape"/>
<feColorMatrix in="SourceAlpha" type="matrix" values="0 0 0 0 0 0 0 0 0 0 0 0 0 0 0 0 0 0 127 0" result="hardAlpha"/>
<feOffset dy="2"/>
<feGaussianBlur stdDeviation="1"/>
<feComposite in2="hardAlpha" operator="arithmetic" k2="-1" k3="1"/>
<feColorMatrix type="matrix" values="0 0 0 0 0.321569 0 0 0 0 0.317647 0 0 0 0 0.329412 0 0 0 1 0"/>
<feBlend mode="normal" in2="shape" result="effect2_innerShadow_2224_217"/>
</filter>
<filter id="filter7_di_2224_217" x="181" y="190.507" width="122" height="127" filterUnits="userSpaceOnUse" color-interpolation-filters="sRGB">
<feFlood flood-opacity="0" result="BackgroundImageFix"/>
<feColorMatrix in="SourceAlpha" type="matrix" values="0 0 0 0 0 0 0 0 0 0 0 0 0 0 0 0 0 0 127 0" result="hardAlpha"/>
<feOffset dy="30"/>
<feGaussianBlur stdDeviation="12.5"/>
<feComposite in2="hardAlpha" operator="out"/>
<feColorMatrix type="matrix" values="0 0 0 0 0 0 0 0 0 0 0 0 0 0 0 0 0 0 0.5 0"/>
<feBlend mode="normal" in2="BackgroundImageFix" result="effect1_dropShadow_2224_217"/>
<feBlend mode="normal" in="SourceGraphic" in2="effect1_dropShadow_2224_217" result="shape"/>
<feColorMatrix in="SourceAlpha" type="matrix" values="0 0 0 0 0 0 0 0 0 0 0 0 0 0 0 0 0 0 127 0" result="hardAlpha"/>
<feOffset dy="2"/>
<feGaussianBlur stdDeviation="1"/>
<feComposite in2="hardAlpha" operator="arithmetic" k2="-1" k3="1"/>
<feColorMatrix type="matrix" values="0 0 0 0 0.321569 0 0 0 0 0.317647 0 0 0 0 0.329412 0 0 0 1 0"/>
<feBlend mode="normal" in2="shape" result="effect2_innerShadow_2224_217"/>
</filter>
<filter id="filter8_di_2224_217" x="271" y="190.507" width="122" height="127" filterUnits="userSpaceOnUse" color-interpolation-filters="sRGB">
<feFlood flood-opacity="0" result="BackgroundImageFix"/>
<feColorMatrix in="SourceAlpha" type="matrix" values="0 0 0 0 0 0 0 0 0 0 0 0 0 0 0 0 0 0 127 0" result="hardAlpha"/>
<feOffset dy="30"/>
<feGaussianBlur stdDeviation="12.5"/>
<feComposite in2="hardAlpha" operator="out"/>
<feColorMatrix type="matrix" values="0 0 0 0 0 0 0 0 0 0 0 0 0 0 0 0 0 0 0.5 0"/>
<feBlend mode="normal" in2="BackgroundImageFix" result="effect1_dropShadow_2224_217"/>
<feBlend mode="normal" in="SourceGraphic" in2="effect1_dropShadow_2224_217" result="shape"/>
<feColorMatrix in="SourceAlpha" type="matrix" values="0 0 0 0 0 0 0 0 0 0 0 0 0 0 0 0 0 0 127 0" result="hardAlpha"/>
<feOffset dy="2"/>
<feGaussianBlur stdDeviation="1"/>
<feComposite in2="hardAlpha" operator="arithmetic" k2="-1" k3="1"/>
<feColorMatrix type="matrix" values="0 0 0 0 0.321569 0 0 0 0 0.317647 0 0 0 0 0.329412 0 0 0 1 0"/>
<feBlend mode="normal" in2="shape" result="effect2_innerShadow_2224_217"/>
</filter>
<filter id="filter9_di_2224_217" x="361" y="190.507" width="122" height="127" filterUnits="userSpaceOnUse" color-interpolation-filters="sRGB">
<feFlood flood-opacity="0" result="BackgroundImageFix"/>
<feColorMatrix in="SourceAlpha" type="matrix" values="0 0 0 0 0 0 0 0 0 0 0 0 0 0 0 0 0 0 127 0" result="hardAlpha"/>
<feOffset dy="30"/>
<feGaussianBlur stdDeviation="12.5"/>
<feComposite in2="hardAlpha" operator="out"/>
<feColorMatrix type="matrix" values="0 0 0 0 0 0 0 0 0 0 0 0 0 0 0 0 0 0 0.5 0"/>
<feBlend mode="normal" in2="BackgroundImageFix" result="effect1_dropShadow_2224_217"/>
<feBlend mode="normal" in="SourceGraphic" in2="effect1_dropShadow_2224_217" result="shape"/>
<feColorMatrix in="SourceAlpha" type="matrix" values="0 0 0 0 0 0 0 0 0 0 0 0 0 0 0 0 0 0 127 0" result="hardAlpha"/>
<feOffset dy="2"/>
<feGaussianBlur stdDeviation="1"/>
<feComposite in2="hardAlpha" operator="arithmetic" k2="-1" k3="1"/>
<feColorMatrix type="matrix" values="0 0 0 0 0.321569 0 0 0 0 0.317647 0 0 0 0 0.329412 0 0 0 1 0"/>
<feBlend mode="normal" in2="shape" result="effect2_innerShadow_2224_217"/>
</filter>
<filter id="filter10_d_2224_217" x="440.334" y="-0.371094" width="90.3438" height="526.827" filterUnits="userSpaceOnUse" color-interpolation-filters="sRGB">
<feFlood flood-opacity="0" result="BackgroundImageFix"/>
<feColorMatrix in="SourceAlpha" type="matrix" values="0 0 0 0 0 0 0 0 0 0 0 0 0 0 0 0 0 0 127 0" result="hardAlpha"/>
<feOffset dy="10"/>
<feGaussianBlur stdDeviation="8"/>
<feComposite in2="hardAlpha" operator="out"/>
<feColorMatrix type="matrix" values="0 0 0 0 0 0 0 0 0 0 0 0 0 0 0 0 0 0 0.4 0"/>
<feBlend mode="normal" in2="BackgroundImageFix" result="effect1_dropShadow_2224_217"/>
<feBlend mode="normal" in="SourceGraphic" in2="effect1_dropShadow_2224_217" result="shape"/>
</filter>
<filter id="filter11_f_2224_217" x="468.373" y="90.7256" width="21.3281" height="438.3" filterUnits="userSpaceOnUse" color-interpolation-filters="sRGB">
<feFlood flood-opacity="0" result="BackgroundImageFix"/>
<feBlend mode="normal" in="SourceGraphic" in2="BackgroundImageFix" result="shape"/>
<feGaussianBlur stdDeviation="4" result="effect1_foregroundBlur_2224_217"/>
</filter>
<linearGradient id="paint0_linear_2224_217" x1="62" y1="100.507" x2="62" y2="172.507" gradientUnits="userSpaceOnUse">
<stop stop-color="#343236"/>
<stop offset="1" stop-color="#38343F"/>
</linearGradient>
<linearGradient id="paint1_linear_2224_217" x1="152" y1="100.507" x2="152" y2="172.507" gradientUnits="userSpaceOnUse">
<stop stop-color="#343236"/>
<stop offset="1" stop-color="#38343F"/>
</linearGradient>
<linearGradient id="paint2_linear_2224_217" x1="242" y1="100.507" x2="242" y2="172.507" gradientUnits="userSpaceOnUse">
<stop stop-color="#343236"/>
<stop offset="1" stop-color="#38343F"/>
</linearGradient>
<linearGradient id="paint3_linear_2224_217" x1="332" y1="100.507" x2="332" y2="172.507" gradientUnits="userSpaceOnUse">
<stop stop-color="#343236"/>
<stop offset="1" stop-color="#38343F"/>
</linearGradient>
<linearGradient id="paint4_linear_2224_217" x1="422" y1="100.507" x2="422" y2="172.507" gradientUnits="userSpaceOnUse">
<stop stop-color="#343236"/>
<stop offset="1" stop-color="#38343F"/>
</linearGradient>
<linearGradient id="paint5_linear_2224_217" x1="62" y1="190.507" x2="62" y2="262.507" gradientUnits="userSpaceOnUse">
<stop stop-color="#343236"/>
<stop offset="1" stop-color="#38343F"/>
</linearGradient>
<linearGradient id="paint6_linear_2224_217" x1="152" y1="190.507" x2="152" y2="262.507" gradientUnits="userSpaceOnUse">
<stop stop-color="#343236"/>
<stop offset="1" stop-color="#38343F"/>
</linearGradient>
<linearGradient id="paint7_linear_2224_217" x1="242" y1="190.507" x2="242" y2="262.507" gradientUnits="userSpaceOnUse">
<stop stop-color="#343236"/>
<stop offset="1" stop-color="#38343F"/>
</linearGradient>
<linearGradient id="paint8_linear_2224_217" x1="332" y1="190.507" x2="332" y2="262.507" gradientUnits="userSpaceOnUse">
<stop stop-color="#343236"/>
<stop offset="1" stop-color="#38343F"/>
</linearGradient>
<linearGradient id="paint9_linear_2224_217" x1="422" y1="190.507" x2="422" y2="262.507" gradientUnits="userSpaceOnUse">
<stop stop-color="#343236"/>
<stop offset="1" stop-color="#38343F"/>
</linearGradient>
<linearGradient id="paint10_linear_2224_217" x1="484.77" y1="498.394" x2="512.423" y2="116.948" gradientUnits="userSpaceOnUse">
<stop stop-color="#0C0C0C"/>
<stop offset="1" stop-color="#1D1A1F"/>
</linearGradient>
<linearGradient id="paint11_linear_2224_217" x1="0" y1="0" x2="96.773" y2="181.587" gradientUnits="userSpaceOnUse">
<stop/>
<stop offset="0.31" stop-color="white"/>
</linearGradient>
<linearGradient id="paint12_linear_2224_217" x1="457.645" y1="59.2921" x2="514.53" y2="59.4627" gradientUnits="userSpaceOnUse">
<stop offset="0.01" stop-color="#CFDCF1"/>
<stop offset="0.13" stop-color="white"/>
<stop offset="0.59" stop-color="white"/>
<stop offset="0.92" stop-color="#DFE6F1"/>
<stop offset="0.96" stop-color="#D4DDEC"/>
</linearGradient>
<clipPath id="clip0_2224_217">
<rect width="545" height="309" fill="white"/>
</clipPath>
<clipPath id="clip1_2224_217">
<path d="M466.49 497.069C460.881 496.663 456.347 491.939 456.363 486.519L457.776 15.4429C457.793 10.0227 462.353 5.95845 467.962 6.36507L504.523 9.01552C510.132 9.42214 514.665 14.1457 514.649 19.5658L513.236 490.642C513.22 496.062 508.66 500.126 503.051 499.72L466.49 497.069Z" fill="white"/>
</clipPath>
</defs>
</svg>
